<svg viewBox="0 0 24 24" fill="none" xmlns="http://www.w3.org/2000/svg">
<path fill-rule="evenodd" clip-rule="evenodd" d="M4.1875 3C3.60734 3 3.05094 3.23046 2.6407 3.6407C2.23047 4.05094 2 4.60734 2 5.1875V18.3125C2 19.52 2.98 20.5 4.1875 20.5H19.8125C20.3926 20.5 20.949 20.2695 21.3593 19.8593C21.7695 19.449 22 18.8926 22 18.3125V7.6875C22 7.10734 21.7695 6.55094 21.3593 6.1407C20.949 5.73046 20.3926 5.5 19.8125 5.5H11.6875C11.639 5.5 11.5911 5.4887 11.5477 5.46701C11.5043 5.44531 11.4666 5.41381 11.4375 5.375L10.3125 3.875C9.9 3.325 9.25 3 8.5625 3H4.1875Z" fill="currentColor"/>
</svg>
