<svg viewBox="0 0 24 24" fill="none" xmlns="http://www.w3.org/2000/svg">
<path d="M2.65176 4.62239C3.06908 4.22388 3.63508 4 4.22526 4H8.67577C9.37513 4 10.0364 4.31571 10.456 4.85L11.6004 6.30714C11.63 6.34485 11.6684 6.37545 11.7125 6.39653C11.7567 6.41759 11.8054 6.42857 11.8547 6.42857H18.5305C19.2327 6.42857 19.802 6.97223 19.802 7.64286V8.25H5.49683C4.97013 8.25 4.54315 8.65774 4.54315 9.16071C4.54315 9.66369 4.97013 10.0714 5.49683 10.0714H20.7283C21.4894 10.0714 22.0801 10.7057 21.9911 11.4276L21.0736 18.875C21.0736 19.4386 20.8391 19.979 20.4218 20.3776C20.0045 20.7761 19.4385 21 18.8484 21H4.22526C2.99691 21 2 20.048 2 18.875V6.125C2 5.56141 2.23445 5.02091 2.65176 4.62239Z" fill="currentColor"/>
</svg>
