<svg viewBox="0 0 150 34" fill="none" xmlns="http://www.w3.org/2000/svg">
<path d="M10.0745 25.3851C10.2749 22.6103 11.6008 13.6977 12.3627 6.10603C11.8982 6.27763 11.6221 6.37905 11.3459 6.48335C9.93328 7.0199 8.5313 7.589 7.10188 8.07811C6.62335 8.24293 5.93153 8.6206 5.61533 7.95778C5.31571 7.32793 5.98296 6.94391 6.42022 6.69225L6.42641 6.68869C8.37835 5.56553 10.2903 4.31668 12.3624 3.46947C17.7112 1.27981 16.1361 2.27623 21.5353 0.210105C21.8651 0.0836738 22.2417 -0.0292724 22.5814 0.00681753C22.8625 0.0357787 23.2753 0.241829 23.3447 0.460654C23.4165 0.686872 23.2252 1.15558 23.0092 1.2859C22.1496 1.80604 21.2569 2.28478 20.3364 2.68784C16.3815 4.4205 19.4092 3.11434 15.4541 4.84844C15.2288 4.94774 14.9865 5.26252 14.9532 5.50426C13.8252 13.4639 13.4788 18.3527 13.5 26.3837C13.4817 27.697 13.3929 29.0473 13.1765 30.3449C12.9979 31.4169 12.4225 32.2841 11.3002 32.6003C10.1484 32.926 9.13928 32.4963 8.47615 31.6163C7.45571 30.2626 6.70618 29.0634 5.69689 27.3503C3.53423 23.6795 1.09128 17.4605 1.09128 17.4605C1.09128 17.4605 0.591965 16.2123 0.417526 15.567C0.254242 14.9672 0.364941 14.3944 1.00013 14.1008C1.6233 13.8135 2.11254 14.1407 2.42005 14.6237C3.4403 16.2201 5.39299 19.4685 5.39299 19.4685C5.39299 19.4685 6.90363 22.2019 8.45545 24.8797C8.59427 25.118 8.75117 25.346 8.90046 25.5793C9.04976 25.8126 9.80734 27.2657 10.0745 25.3851Z" fill="currentColor"/>
<path d="M57.7147 16.8009C57.4766 17.9785 57.245 19.1449 57.002 20.3091C56.7678 21.4321 56.3286 21.9334 55.6428 21.8868C54.9873 21.8424 54.7034 21.3524 54.531 20.1986C54.1134 17.3976 54.0841 14.6029 54.5846 11.8118C54.6644 11.3669 54.733 10.8777 54.9674 10.5118C55.202 10.1445 55.5942 9.77405 55.9953 9.64121C56.5281 9.46586 56.9394 9.85095 57.2068 10.3297C57.2632 10.4291 57.333 10.5223 57.4646 10.721C58.0272 9.93238 58.54 9.2124 59.1428 8.36744C58.6492 8.30002 58.3266 8.22617 58.0038 8.21586C56.7092 8.17729 55.415 8.17486 54.1218 8.11761C53.8957 8.10706 53.5764 7.94821 53.4856 7.7654C53.3797 7.55117 53.3749 7.15643 53.5103 6.98273C53.7316 6.69822 54.0709 6.441 54.4117 6.32259C56.1665 5.70961 57.9873 5.58248 59.8074 5.8858C61.6359 6.19119 62.3903 7.72789 61.4399 9.32642C60.7214 10.5343 59.7771 11.6074 58.9284 12.7365C58.7558 12.9668 58.5747 13.1935 58.3777 13.4018C58.054 13.7425 58.1186 14.0288 58.4518 14.3158C59.0884 14.8631 59.7122 15.4268 60.352 15.9699C62.7289 17.985 63.0782 20.4905 62.2672 23.359C62.2672 23.359 61.5914 24.8177 61.1185 25.7324C59.7373 28.4048 59.1023 28.777 57.0663 32.2836C56.8174 32.7106 56.4993 33.134 56.1188 33.4417C55.2855 34.1184 54.1772 33.8014 53.867 32.775C53.7154 32.2743 53.7566 31.7864 53.8205 31.1579C53.9336 30.047 54.2124 29.4316 54.7546 28.4555C56.1188 26 57.4134 25.0374 58.7326 22.6126C58.9338 22.2427 59.0842 21.985 59.2335 21.6578C60.1705 19.6046 59.7007 18.0885 57.7147 16.8009Z" fill="currentColor"/>
<path d="M101.379 16.0991C101.176 17.4063 101.012 18.5632 100.81 19.7131C100.711 20.2795 100.556 20.836 100.407 21.3916C100.286 21.8423 100.014 22.2791 99.5255 22.1369C99.1902 22.0391 98.8094 21.6504 98.7067 21.3121C98.5432 20.7759 98.562 20.1749 98.5615 19.6013C98.5585 17.0613 98.9485 14.5815 99.761 12.1727C99.8603 11.8779 99.9592 11.5687 100.136 11.3214C100.282 11.1153 100.579 10.8318 100.742 10.8696C100.951 10.918 101.205 11.2354 101.245 11.4708C101.355 12.1289 101.391 12.8033 101.404 13.4716C101.413 13.9649 101.341 14.4581 101.308 14.9223C102.574 13.4521 103.839 12.0309 105.046 10.5635C105.792 9.65668 105.72 9.34957 104.594 9.00817C103.152 8.57034 101.663 8.28513 100.2 7.90652C99.6233 7.7565 99.0293 7.59949 98.5122 7.318C98.2314 7.16626 97.918 6.72468 97.9493 6.45101C97.9796 6.19171 98.4236 5.80481 98.7143 5.77957C101.426 5.53907 104.109 5.71832 106.582 6.95442C108.47 7.8983 108.969 9.61878 107.881 11.4241C107.282 12.4167 106.441 13.269 105.674 14.1527C105.238 14.6557 104.729 15.0971 104.181 15.6369C104.471 15.8038 104.684 15.9433 104.909 16.052C109.315 18.2035 110.013 23.5261 108.756 25.9066C107.5 28.2871 106.628 29.6648 105.179 32.0223C104.959 32.3811 104.822 32.648 104.612 32.9391C104.122 33.6174 103.464 33.8863 102.817 33.6995C102.118 33.4973 101.57 32.8307 101.633 31.9974C101.692 31.1941 101.804 30.3455 102.128 29.6205C103.179 27.2725 104.738 25.2037 105.655 22.7615C106.222 21.2552 105.879 20.2177 104.618 19.1992C104.282 18.9279 103.925 18.684 103.569 18.4387C102.706 17.8433 101.82 17.2737 101.379 16.0977L101.379 16.0991Z" fill="currentColor"/>
<path d="M85.2649 17.5578C84.0423 18.2236 82.96 18.2076 81.7873 17.5017C81.789 18.399 81.8097 19.1734 81.7857 19.946C81.7722 20.3726 81.7474 20.8158 81.623 21.2185C81.3914 21.9646 80.7122 22.388 79.9657 22.3427C79.1875 22.2952 78.5485 21.7622 78.4506 20.9563C78.3881 20.4418 78.423 19.8982 78.512 19.386C78.859 17.4015 79.243 15.424 79.6214 13.4447C79.6657 13.211 79.711 12.9441 79.8521 12.7708C80.0788 12.4925 80.3767 12.108 80.664 12.0912C80.928 12.0756 81.224 12.4783 81.4916 12.7129C81.5922 12.8011 81.6253 12.9826 81.7319 13.0467C82.301 13.3882 82.8848 13.7063 83.5483 14.0807C84.1721 13.3644 84.8167 12.6005 85.4899 11.8603C85.8588 11.4535 86.2279 11.0237 86.6735 10.7149C88.0134 9.78449 89.7656 10.6073 89.7774 12.2248C89.7901 13.9694 89.7396 15.7297 89.5166 17.4573C89.0571 21.0214 88.48 22.5712 87.9131 26.1217C87.8097 26.773 87.595 27.4264 87.312 28.0243C86.8959 28.9044 85.7507 29.0788 85.1896 28.2871C84.7529 27.6719 84.338 26.8561 84.3536 26.1392C84.4059 23.5541 84.6241 22.9723 84.8234 20.3921C84.8912 19.5129 85.0912 18.6432 85.2648 17.5592L85.2649 17.5578Z" fill="currentColor"/>
<path d="M30.0585 19.0746C30.6529 19.0857 31.1967 19.0961 31.7998 19.1078C31.8027 18.2672 31.7612 17.4812 31.8188 16.7038C31.8891 15.7496 32.0301 14.7977 32.1664 13.8497C32.2505 13.2649 32.5714 13.0425 33.2131 13.0397C34.2203 13.0358 34.9401 13.5111 35.667 14.2873C35.9107 13.6332 36.1064 13.0839 36.3232 12.5419C36.4379 12.254 36.5191 11.89 36.7391 11.7239C37.0524 11.4865 37.5175 11.2282 37.8475 11.2997C38.1192 11.3583 38.4796 11.8886 38.4729 12.2016C38.4453 13.4651 38.3493 14.7338 38.1624 15.983C38.0443 16.7777 37.5581 17.4086 36.7104 17.6045C35.8523 17.8041 35.2285 17.3993 34.7288 16.7377C34.6351 16.6139 34.5048 16.5178 34.2507 16.2755C34.251 17.112 34.2265 17.7719 34.2555 18.4299C34.3138 19.7444 34.0001 20.0064 32.6847 20.1368C31.8511 20.2181 31.0453 20.5731 30.1973 20.8138C30.2325 21.9664 30.2766 23.1368 30.3003 24.3087C30.3065 24.6429 30.3399 25.0209 30.2026 25.3014C30.0434 25.6265 29.7256 26.0659 29.4466 26.0876C29.1647 26.1106 28.6943 25.7429 28.5774 25.4412C28.3135 24.7547 28.2056 24.0072 28.0515 23.281C27.9028 22.5783 27.7776 21.8715 27.6442 21.1785C26.4292 21.0185 26.3244 21.089 26.0992 22.1678C25.9028 23.1071 25.7234 24.0505 25.5015 24.9836C25.2813 25.9126 24.6489 26.387 23.8753 26.2574C23.1231 26.1309 22.6296 25.4423 22.7707 24.5091C23.4183 20.1814 24.316 15.9122 25.9427 11.83C26.0557 11.5449 26.223 11.2694 26.4125 11.026C27.0395 10.2247 27.7669 10.335 28.1383 11.2734C28.1639 11.3388 28.1538 11.4392 28.1988 11.4757C29.678 12.6992 29.4842 14.4824 29.7352 16.1084C29.8851 17.0742 29.9502 18.0526 30.0582 19.0774L30.0585 19.0746ZM26.7367 19.141C27.3533 19.1248 27.4005 18.8711 27.0115 17.8361C26.913 18.2999 26.8267 18.7141 26.7367 19.141Z" fill="currentColor"/>
<path d="M144.932 11.181C144.372 13.4347 143.769 15.8038 143.199 18.181C143.015 18.9478 142.892 19.7321 142.782 20.5144C142.685 21.2022 143.009 21.6792 143.658 21.9081C144.699 22.2737 145.753 22.6026 146.791 22.9752C147.285 23.1524 147.784 23.3488 148.233 23.6167C148.875 23.9997 149.217 24.595 149.145 25.3685C149.073 26.1463 148.621 26.7088 147.909 26.903C145.402 27.5888 142.879 27.6884 140.603 26.2484C138.939 25.1965 138.181 24.4469 138.856 21.7073C139.545 18.901 139.923 16.0158 140.632 13.2152C141.064 11.5114 141.821 9.88004 142.535 8.26305C142.677 7.94101 143.284 7.69304 143.699 7.65506C144.253 7.60549 144.62 8.02351 144.687 8.59897C144.78 9.40463 144.842 10.2123 144.932 11.1824L144.932 11.181Z" fill="currentColor"/>
<path d="M37.8054 24.0286C38.6196 20.4742 39.4197 16.9174 40.2595 13.3693C40.5024 12.3452 40.8465 11.3414 41.1802 10.3413C41.3367 9.87438 41.5995 9.41661 42.2049 9.53544C42.7675 9.64685 42.8583 10.1504 42.8438 10.6102C42.8182 11.4462 42.6987 12.2799 42.6759 13.1161C42.6672 13.4174 42.8094 13.7282 42.9048 14.0283C43.3171 15.3208 43.8133 16.5918 44.1315 17.9077C44.4352 19.1634 44.5698 20.4603 44.7502 21.7432C44.8092 22.1665 44.9108 22.4801 45.4051 22.5172C45.5431 22.5272 45.6809 22.5992 45.8125 22.6578C46.4614 22.9546 46.5641 23.433 45.9321 23.7428C45.1083 24.147 45.2188 24.678 45.3376 25.3728C45.544 26.5766 45.6712 27.7965 45.8015 29.0122C45.8396 29.366 45.8678 29.7754 45.7275 30.0773C45.5668 30.4226 45.2348 30.8797 44.9332 30.9142C44.6273 30.9499 44.0847 30.6002 43.9681 30.2956C43.5571 29.2243 43.277 28.1018 42.964 26.9942C42.7684 26.3011 42.5788 25.6055 42.4346 24.9017C42.346 24.4691 42.1438 24.2884 41.7029 24.3114C41.4172 24.3269 41.1144 24.2184 40.8457 24.2784C40.6239 24.3289 40.4393 24.5452 40.2395 24.6912C40.2243 24.7016 40.2275 24.7366 40.2201 24.7591C39.8954 25.7354 39.4056 26.1566 38.7462 26.0252C38.0825 25.8934 37.8401 25.3689 37.9363 24.2764C37.9415 24.2045 37.9467 24.1327 37.9519 24.0608C37.9035 24.0501 37.8567 24.0381 37.8084 24.0274L37.8054 24.0286ZM41.3907 20.3117C41.3473 20.3129 41.3038 20.3155 41.2603 20.3167C41.1623 20.7936 41.0644 21.2691 40.9614 21.7759L41.6857 21.8282C41.5784 21.2744 41.4845 20.7938 41.3906 20.3131L41.3907 20.3117Z" fill="currentColor"/>
<path d="M133.564 21.3629C132.669 22.9553 131.243 23.6151 129.726 24.147C129.21 24.3279 128.645 24.3825 128.347 23.9159C128.107 23.5403 127.915 22.9082 128.07 22.5466C128.545 21.4353 129.122 20.3486 129.807 19.3551C130.233 18.7401 130.369 18.2182 130.057 17.5716C129.725 16.8802 129.353 16.2075 129.036 15.5086C128.451 14.2167 128.632 12.9975 129.592 11.9703C130.638 10.851 131.948 10.3331 133.494 10.6527C133.706 10.6969 133.991 10.9516 134.019 11.1414C134.045 11.3195 133.812 11.5902 133.626 11.7327C132.948 12.253 132.208 12.698 131.56 13.2493C131.064 13.6715 131.025 14.2509 131.402 14.8097C131.951 15.6208 132.51 16.4239 133.098 17.2797C133.379 16.5936 133.526 15.9122 133.904 15.4021C134.31 14.8521 134.881 14.3675 135.481 14.0322C135.971 13.7585 136.472 14.1327 136.497 14.6864C136.57 16.314 136.644 17.9446 136.642 19.5741C136.641 20.2862 136.484 21.003 136.344 21.708C136.212 22.3717 135.923 22.9735 135.147 23.0561C134.365 23.1398 134.073 22.5654 133.835 21.9574C133.775 21.8028 133.698 21.6556 133.563 21.3627L133.564 21.3629Z" fill="currentColor"/>
<path d="M125.106 21.957C124.57 20.7062 124.057 19.5076 123.468 18.1346C123.247 18.7413 123.12 19.1699 122.938 19.5714C122.552 20.4204 121.866 20.7754 121.093 20.5621C120.411 20.3742 119.939 19.7304 120.131 18.8558C120.612 16.6599 121.166 14.4781 121.789 12.3185C121.928 11.8373 122.42 11.4235 122.827 11.0643C123.31 10.6383 123.833 10.8134 124.32 11.3238C126.376 13.4789 127.135 16.1876 127.566 19.0098C127.729 20.0849 127.726 21.2158 127.596 22.2957C127.447 23.536 126.445 24.1644 125.462 23.7798C125.147 23.6574 124.835 23.411 124.631 23.1391C124.145 22.49 124.248 22.2331 125.105 21.9569L125.106 21.957Z" fill="currentColor"/>
<path d="M66.0851 18.743C65.9461 19.2675 65.8352 19.8027 65.6609 20.316C65.4848 20.8349 65.3367 21.405 65.0039 21.8129C64.7708 22.0995 64.2391 22.3009 63.8596 22.2735C63.3423 22.2361 63.1326 21.7182 63.195 21.2345C63.5531 18.436 63.9398 15.641 64.325 12.8474C64.3501 12.6599 64.3902 12.4447 64.5014 12.3053C64.7939 11.935 65.0764 11.4439 65.4693 11.3047C65.705 11.2221 66.1421 11.7116 66.503 11.9543C66.965 11.3983 66.6218 10.7292 65.6369 10.4847C65.3573 10.4154 65.1006 10.2481 64.8336 10.1248C65.0745 9.78965 65.249 9.3544 65.5707 9.1407C66.3689 8.61035 67.7414 8.82935 68.6027 9.52575C69.464 10.2222 69.9171 11.3297 69.4671 12.2796C69.0305 13.2044 68.3355 14.0066 67.6923 14.9512C68.0765 15.593 68.6275 16.4056 69.066 17.2752C69.4956 18.1282 69.8379 19.0299 70.1601 19.93C70.385 20.5559 70.3578 21.194 69.6837 21.5657C69.002 21.9427 68.4639 21.573 68.0414 21.0816C67.4629 20.41 66.9413 19.6904 66.4043 18.9842C66.3344 18.8925 66.315 18.7611 66.2725 18.6482C66.2096 18.6798 66.1465 18.7128 66.085 18.7445L66.0851 18.743Z" fill="currentColor"/>
<path d="M115.561 14.7596C116.262 15.4198 116.958 16.0046 117.565 16.6697C118.046 17.1942 118.475 17.7856 118.823 18.4045C119.13 18.9526 119.156 19.5872 118.627 20.0561C118.093 20.529 117.511 20.3685 116.966 20.0301C116.376 19.6638 115.787 19.2934 115.214 18.901C114.662 18.5231 114.133 18.1121 113.52 17.6619C113.39 18.0946 113.283 18.4957 113.149 18.8891C112.891 19.6434 112.365 20.0099 111.707 19.9176C111.083 19.8307 110.578 19.3464 110.657 18.585C110.803 17.1913 111.088 15.809 111.367 14.4337C111.477 13.9013 111.705 13.3875 111.934 12.8898C112.054 12.6312 112.282 12.4165 112.486 12.2059C112.648 12.0385 112.846 11.9054 113.031 11.7627C113.825 11.1526 114.614 10.5334 115.422 9.94312C115.628 9.79185 115.896 9.71301 116.146 9.63713C117.143 9.33206 117.974 9.54808 118.409 10.2108C118.849 10.8797 118.789 11.7841 118.109 12.5295C117.516 13.1787 116.802 13.7194 116.137 14.3028C115.963 14.4563 115.774 14.5929 115.561 14.761L115.561 14.7596Z" fill="currentColor"/>
<path d="M21.7186 16.2303C21.4256 17.047 21.172 18.1382 20.6612 19.0895C19.7532 20.7807 17.9874 20.7269 17.0682 19.0511C16.8728 18.6961 16.7155 18.3134 16.5991 17.9251C16.3974 17.2575 16.332 16.5825 15.7236 16.0445C15.4329 15.788 15.3667 15.0854 15.4583 14.637C15.5833 14.0262 15.8617 13.3919 16.2425 12.8993C17.0185 11.8964 18.0617 11.2942 19.384 11.6078C20.6622 11.9124 21.2231 12.9281 21.4982 14.1008C21.6383 14.7003 21.6316 15.3341 21.7187 16.2288L21.7186 16.2303ZM18.7008 17.9092C19.2198 16.9239 19.2922 16.0002 19.2224 15.0662C19.1978 14.7466 19.0649 14.4062 18.8848 14.1404C18.7921 14.0037 18.4657 13.9223 18.2887 13.9717C18.106 14.022 17.8305 14.2752 17.8435 14.4162C17.9491 15.5738 18.0379 16.7461 18.7008 17.9092Z" fill="currentColor"/>
<path d="M73.808 16.1873C74.0689 15.0938 74.3284 14.0016 74.5879 12.9079C74.6151 12.7914 74.6325 12.6713 74.6611 12.5549C74.913 11.5676 75.3611 11.0828 76.0074 11.0962C76.6146 11.1097 77.1046 11.5872 77.2479 12.5626C77.5139 14.3818 77.5983 16.214 76.686 17.9048C76.4207 18.3971 76.0315 18.866 75.5958 19.2173C74.7354 19.9093 73.5134 19.7662 72.8202 18.9028C71.6325 17.4244 71.4083 15.6876 71.628 13.8658C71.6464 13.7111 71.8096 13.4918 71.945 13.4568C72.0877 13.4208 72.3301 13.525 72.4353 13.6496C72.6162 13.8649 72.7442 14.1328 72.8583 14.3938C73.1148 14.983 73.3476 15.5806 73.5906 16.176C73.664 16.1798 73.736 16.1836 73.8095 16.186L73.808 16.1873Z" fill="currentColor"/>
<path d="M136.154 8.33104C136.197 7.85452 136.501 7.5673 137.037 7.56412C137.655 7.5611 138.155 8.24439 138.078 9.11285C138.058 9.33386 137.697 9.66467 137.459 9.69806C136.935 9.77291 136.134 8.9046 136.155 8.32971L136.154 8.33104Z" fill="currentColor"/>
</svg>
