<svg width="24" height="24" viewBox="0 0 24 24" fill="none" xmlns="http://www.w3.org/2000/svg">
<path d="M21.9931 11.5497C21.8989 8.99542 20.813 6.57599 18.9618 4.79653C17.1106 3.01706 14.6374 2.01515 12.0586 2H12.0099C10.2733 1.99872 8.56629 2.44558 7.05679 3.29661C5.54731 4.14764 4.2874 5.3735 3.40102 6.85358C2.51464 8.33368 2.03234 10.017 2.00157 11.7379C1.9708 13.4588 2.39262 15.1579 3.22553 16.6683L2.34111 21.9135C2.33967 21.9243 2.34056 21.9352 2.34372 21.9456C2.34688 21.956 2.35224 21.9656 2.35944 21.9738C2.36663 21.982 2.3755 21.9885 2.38546 21.9931C2.39541 21.9976 2.40623 21.9999 2.41718 22H2.4324L7.6669 20.846C9.01939 21.4895 10.5005 21.8235 12.0008 21.8231C12.0961 21.8231 12.1915 21.8231 12.2868 21.8231C13.6065 21.7857 14.9057 21.4897 16.1093 20.9521C17.313 20.4145 18.3974 19.646 19.2998 18.6909C20.2022 17.7357 20.9048 16.6129 21.3671 15.3872C21.8293 14.1615 22.0421 12.8573 21.9931 11.5497ZM12.2371 20.0991C12.158 20.0991 12.0789 20.0991 12.0008 20.0991C10.6748 20.1007 9.36788 19.7863 8.19026 19.1823L7.92249 19.0436L4.37265 19.8749L5.02784 16.3154L4.87571 16.0601C4.14908 14.8323 3.7577 13.438 3.74011 12.0146C3.72252 10.5913 4.07932 9.18788 4.77539 7.94278C5.47145 6.69766 6.48276 5.65372 7.7097 4.91378C8.93665 4.17384 10.3369 3.76342 11.7726 3.72296C11.8524 3.72296 11.9325 3.72296 12.0129 3.72296C14.1805 3.72933 16.2588 4.57938 17.8 6.08998C19.3413 7.60057 20.2221 9.65081 20.2527 11.7989C20.2833 13.947 19.4612 16.021 17.9636 17.5741C16.466 19.1273 14.4127 20.0351 12.2462 20.1021L12.2371 20.0991Z" fill="currentColor"/>
<path d="M8.24848 7.44441C8.12491 7.44681 8.00307 7.47375 7.89018 7.52365C7.77729 7.57355 7.67565 7.64539 7.59128 7.73493C7.35293 7.97719 6.68657 8.56022 6.64803 9.78459C6.60949 11.0089 7.47261 12.2203 7.5933 12.3901C7.714 12.56 9.24346 15.2048 11.7629 16.2773C13.2437 16.9096 13.8928 17.0182 14.3137 17.0182C14.4871 17.0182 14.618 17.0001 14.7549 16.992C15.2164 16.9639 16.258 16.4352 16.4852 15.8602C16.7124 15.2852 16.7276 14.7826 16.6677 14.682C16.6079 14.5815 16.4436 14.5091 16.1961 14.3805C15.9487 14.2518 14.7346 13.6085 14.5064 13.518C14.4218 13.4789 14.3307 13.4555 14.2376 13.4487C14.177 13.4518 14.1181 13.4695 14.0659 13.5004C14.0138 13.5312 13.97 13.5742 13.9384 13.6255C13.7356 13.8759 13.2701 14.4197 13.1138 14.5765C13.0797 14.6154 13.0377 14.6468 12.9905 14.6687C12.9433 14.6905 12.892 14.7023 12.84 14.7032C12.744 14.699 12.6502 14.6739 12.5651 14.6298C11.8297 14.3203 11.1592 13.877 10.5883 13.323C10.0549 12.8019 9.60238 12.2054 9.24548 11.5528C9.10758 11.2995 9.24548 11.1688 9.37126 11.0502C9.49705 10.9315 9.63191 10.7677 9.76173 10.6259C9.86828 10.5049 9.95707 10.3695 10.0255 10.2239C10.0609 10.1563 10.0788 10.081 10.0775 10.0049C10.0763 9.92866 10.0559 9.85406 10.0183 9.78759C9.95855 9.66092 9.51124 8.41546 9.30131 7.91587C9.13092 7.48865 8.92805 7.47457 8.75054 7.46151C8.60451 7.45145 8.43716 7.44643 8.2698 7.4414H8.24848" fill="currentColor"/>
</svg>
